<?xml version="1.0" standalone="no"?>
<!DOCTYPE svg PUBLIC "-//W3C//DTD SVG 20010904//EN"
 "http://www.w3.org/TR/2001/REC-SVG-20010904/DTD/svg10.dtd">
<svg version="1.0" xmlns="http://www.w3.org/2000/svg"
 width="250.000000pt" height="250.000000pt" viewBox="0 0 250.000000 250.000000"
 preserveAspectRatio="xMidYMid meet">
<metadata>
Created by potrace 1.14, written by Peter Selinger 2001-2017
</metadata>
<g transform="translate(0.000000,250.000000) scale(0.100000,-0.100000)"
fill="#000000" stroke="none">
<path d="M1105 2481 c-127 -33 -227 -81 -325 -156 -50 -39 -123 -115 -116
-122 2 -2 19 3 39 12 72 30 137 38 350 41 169 2 230 6 271 19 47 15 104 53
107 73 11 62 -6 104 -54 129 -48 25 -184 27 -272 4z"/>
<path d="M1460 2456 c59 -40 102 -117 114 -206 3 -19 6 -213 6 -431 2 -392 2
-396 26 -468 48 -143 127 -222 269 -271 l56 -19 -50 54 c-52 57 -84 126 -96
207 -4 25 -8 234 -9 464 -2 396 -3 422 -23 470 -41 103 -115 168 -234 205 -83
26 -101 24 -59 -5z"/>
<path d="M1402 2176 c-56 -56 -86 -60 -412 -63 -235 -2 -309 -5 -363 -19 -117
-28 -221 -111 -276 -221 -27 -55 -27 -62 4 -29 52 56 69 59 445 61 238 2 359
6 390 15 107 29 183 88 219 170 18 42 38 121 30 119 -2 0 -19 -15 -37 -33z"/>
<path d="M1848 2145 c55 -47 60 -81 62 -432 1 -356 2 -371 30 -447 38 -99 136
-182 238 -200 32 -5 45 7 18 17 -20 8 -64 85 -71 127 -4 19 -7 159 -7 309 -1
151 -6 298 -11 325 -21 120 -102 233 -210 295 -66 37 -90 40 -49 6z"/>
<path d="M1402 1890 c-38 -45 -133 -95 -208 -108 -28 -5 -233 -9 -455 -10
-257 0 -422 -5 -454 -12 -95 -21 -173 -83 -219 -175 -23 -47 -51 -143 -44
-151 2 -1 12 10 22 25 26 38 101 87 156 102 32 9 166 13 450 14 433 1 465 4
569 53 100 47 186 157 211 268 4 19 7 34 6 34 0 0 -16 -18 -34 -40z"/>
<path d="M2213 1814 c37 -72 47 -153 49 -384 2 -265 26 -338 123 -364 30 -9
84 29 102 72 24 59 13 246 -21 335 -61 160 -157 300 -240 353 l-29 18 16 -30z"/>
<path d="M79 1428 c-13 -4 -35 -25 -49 -45 -22 -33 -25 -46 -25 -132 0 -134
14 -189 81 -326 46 -95 130 -206 185 -246 30 -21 32 -21 24 -3 -39 93 -47 151
-50 365 -3 236 -14 303 -60 357 -27 32 -67 43 -106 30z"/>
<path d="M300 1433 c0 -3 15 -23 34 -44 22 -26 37 -57 43 -90 6 -28 11 -176
12 -330 0 -171 5 -298 12 -327 30 -123 114 -234 217 -286 66 -33 70 -33 33 5
-17 16 -36 49 -42 72 -7 26 -12 168 -13 377 -3 348 -7 383 -48 465 -25 48 -88
112 -126 127 -41 16 -122 37 -122 31z"/>
<path d="M610 1402 c20 -16 48 -52 63 -79 50 -93 54 -134 55 -581 1 -349 4
-422 17 -469 30 -103 84 -165 183 -211 59 -27 165 -54 156 -41 -3 5 -11 9 -18
9 -16 0 -80 68 -99 105 -35 71 -39 114 -39 506 0 418 -5 472 -53 574 -46 97
-169 194 -269 212 l-31 5 35 -30z"/>
<path d="M2475 1061 c-13 -43 -117 -113 -186 -127 -19 -3 -214 -8 -434 -9
-220 -2 -416 -6 -436 -9 -138 -22 -262 -113 -314 -229 -26 -60 -44 -135 -24
-103 36 58 147 119 244 135 33 5 239 9 458 9 438 1 468 4 554 63 40 28 84 83
110 139 18 37 46 141 40 146 -3 3 -8 -4 -12 -15z"/>
<path d="M2154 659 c-10 -12 -39 -31 -64 -42 -42 -19 -67 -21 -385 -22 -247
-2 -352 -6 -385 -15 -25 -7 -51 -15 -58 -16 -23 -4 -88 -51 -121 -86 -33 -35
-71 -122 -71 -164 l0 -26 25 30 c50 60 80 65 395 68 319 3 358 6 438 36 99 36
171 102 222 201 33 62 33 69 4 36z"/>
<path d="M1800 286 c-51 -28 -140 -38 -350 -42 -240 -4 -300 -15 -350 -64 -53
-52 -32 -132 43 -164 46 -19 152 -19 241 -1 161 33 379 161 441 258 19 30 13
33 -25 13z"/>
</g>
</svg>
